<svg xmlns="http://www.w3.org/2000/svg" width="198" height="198" viewBox="0 0 198 198" shape-rendering="crispEdges"><rect width="100%" height="100%" fill="#000"/><rect x="12" y="12" width="6" height="6" fill="#fff"/><rect x="18" y="12" width="6" height="6" fill="#fff"/><rect x="24" y="12" width="6" height="6" fill="#fff"/><rect x="30" y="12" width="6" height="6" fill="#fff"/><rect x="36" y="12" width="6" height="6" fill="#fff"/><rect x="42" y="12" width="6" height="6" fill="#fff"/><rect x="48" y="12" width="6" height="6" fill="#fff"/><rect x="60" y="12" width="6" height="6" fill="#fff"/><rect x="66" y="12" width="6" height="6" fill="#fff"/><rect x="84" y="12" width="6" height="6" fill="#fff"/><rect x="90" y="12" width="6" height="6" fill="#fff"/><rect x="114" y="12" width="6" height="6" fill="#fff"/><rect x="126" y="12" width="6" height="6" fill="#fff"/><rect x="132" y="12" width="6" height="6" fill="#fff"/><rect x="144" y="12" width="6" height="6" fill="#fff"/><rect x="150" y="12" width="6" height="6" fill="#fff"/><rect x="156" y="12" width="6" height="6" fill="#fff"/><rect x="162" y="12" width="6" height="6" fill="#fff"/><rect x="168" y="12" width="6" height="6" fill="#fff"/><rect x="174" y="12" width="6" height="6" fill="#fff"/><rect x="180" y="12" width="6" height="6" fill="#fff"/><rect x="12" y="18" width="6" height="6" fill="#fff"/><rect x="48" y="18" width="6" height="6" fill="#fff"/><rect x="60" y="18" width="6" height="6" fill="#fff"/><rect x="66" y="18" width="6" height="6" fill="#fff"/><rect x="72" y="18" width="6" height="6" fill="#fff"/><rect x="90" y="18" width="6" height="6" fill="#fff"/><rect x="114" y="18" width="6" height="6" fill="#fff"/><rect x="120" y="18" width="6" height="6" fill="#fff"/><rect x="132" y="18" width="6" height="6" fill="#fff"/><rect x="144" y="18" width="6" height="6" fill="#fff"/><rect x="180" y="18" width="6" height="6" fill="#fff"/><rect x="12" y="24" width="6" height="6" fill="#fff"/><rect x="24" y="24" width="6" height="6" fill="#fff"/><rect x="30" y="24" width="6" height="6" fill="#fff"/><rect x="36" y="24" width="6" height="6" fill="#fff"/><rect x="48" y="24" width="6" height="6" fill="#fff"/><rect x="60" y="24" width="6" height="6" fill="#fff"/><rect x="90" y="24" width="6" height="6" fill="#fff"/><rect x="132" y="24" width="6" height="6" fill="#fff"/><rect x="144" y="24" width="6" height="6" fill="#fff"/><rect x="156" y="24" width="6" height="6" fill="#fff"/><rect x="162" y="24" width="6" height="6" fill="#fff"/><rect x="168" y="24" width="6" height="6" fill="#fff"/><rect x="180" y="24" width="6" height="6" fill="#fff"/><rect x="12" y="30" width="6" height="6" fill="#fff"/><rect x="24" y="30" width="6" height="6" fill="#fff"/><rect x="30" y="30" width="6" height="6" fill="#fff"/><rect x="36" y="30" width="6" height="6" fill="#fff"/><rect x="48" y="30" width="6" height="6" fill="#fff"/><rect x="66" y="30" width="6" height="6" fill="#fff"/><rect x="84" y="30" width="6" height="6" fill="#fff"/><rect x="90" y="30" width="6" height="6" fill="#fff"/><rect x="96" y="30" width="6" height="6" fill="#fff"/><rect x="108" y="30" width="6" height="6" fill="#fff"/><rect x="132" y="30" width="6" height="6" fill="#fff"/><rect x="144" y="30" width="6" height="6" fill="#fff"/><rect x="156" y="30" width="6" height="6" fill="#fff"/><rect x="162" y="30" width="6" height="6" fill="#fff"/><rect x="168" y="30" width="6" height="6" fill="#fff"/><rect x="180" y="30" width="6" height="6" fill="#fff"/><rect x="12" y="36" width="6" height="6" fill="#fff"/><rect x="24" y="36" width="6" height="6" fill="#fff"/><rect x="30" y="36" width="6" height="6" fill="#fff"/><rect x="36" y="36" width="6" height="6" fill="#fff"/><rect x="48" y="36" width="6" height="6" fill="#fff"/><rect x="60" y="36" width="6" height="6" fill="#fff"/><rect x="66" y="36" width="6" height="6" fill="#fff"/><rect x="72" y="36" width="6" height="6" fill="#fff"/><rect x="84" y="36" width="6" height="6" fill="#fff"/><rect x="90" y="36" width="6" height="6" fill="#fff"/><rect x="102" y="36" width="6" height="6" fill="#fff"/><rect x="108" y="36" width="6" height="6" fill="#fff"/><rect x="114" y="36" width="6" height="6" fill="#fff"/><rect x="120" y="36" width="6" height="6" fill="#fff"/><rect x="132" y="36" width="6" height="6" fill="#fff"/><rect x="144" y="36" width="6" height="6" fill="#fff"/><rect x="156" y="36" width="6" height="6" fill="#fff"/><rect x="162" y="36" width="6" height="6" fill="#fff"/><rect x="168" y="36" width="6" height="6" fill="#fff"/><rect x="180" y="36" width="6" height="6" fill="#fff"/><rect x="12" y="42" width="6" height="6" fill="#fff"/><rect x="48" y="42" width="6" height="6" fill="#fff"/><rect x="60" y="42" width="6" height="6" fill="#fff"/><rect x="78" y="42" width="6" height="6" fill="#fff"/><rect x="90" y="42" width="6" height="6" fill="#fff"/><rect x="96" y="42" width="6" height="6" fill="#fff"/><rect x="108" y="42" width="6" height="6" fill="#fff"/><rect x="114" y="42" width="6" height="6" fill="#fff"/><rect x="120" y="42" width="6" height="6" fill="#fff"/><rect x="126" y="42" width="6" height="6" fill="#fff"/><rect x="132" y="42" width="6" height="6" fill="#fff"/><rect x="144" y="42" width="6" height="6" fill="#fff"/><rect x="180" y="42" width="6" height="6" fill="#fff"/><rect x="12" y="48" width="6" height="6" fill="#fff"/><rect x="18" y="48" width="6" height="6" fill="#fff"/><rect x="24" y="48" width="6" height="6" fill="#fff"/><rect x="30" y="48" width="6" height="6" fill="#fff"/><rect x="36" y="48" width="6" height="6" fill="#fff"/><rect x="42" y="48" width="6" height="6" fill="#fff"/><rect x="48" y="48" width="6" height="6" fill="#fff"/><rect x="60" y="48" width="6" height="6" fill="#fff"/><rect x="72" y="48" width="6" height="6" fill="#fff"/><rect x="84" y="48" width="6" height="6" fill="#fff"/><rect x="96" y="48" width="6" height="6" fill="#fff"/><rect x="108" y="48" width="6" height="6" fill="#fff"/><rect x="120" y="48" width="6" height="6" fill="#fff"/><rect x="132" y="48" width="6" height="6" fill="#fff"/><rect x="144" y="48" width="6" height="6" fill="#fff"/><rect x="150" y="48" width="6" height="6" fill="#fff"/><rect x="156" y="48" width="6" height="6" fill="#fff"/><rect x="162" y="48" width="6" height="6" fill="#fff"/><rect x="168" y="48" width="6" height="6" fill="#fff"/><rect x="174" y="48" width="6" height="6" fill="#fff"/><rect x="180" y="48" width="6" height="6" fill="#fff"/><rect x="60" y="54" width="6" height="6" fill="#fff"/><rect x="78" y="54" width="6" height="6" fill="#fff"/><rect x="84" y="54" width="6" height="6" fill="#fff"/><rect x="96" y="54" width="6" height="6" fill="#fff"/><rect x="102" y="54" width="6" height="6" fill="#fff"/><rect x="108" y="54" width="6" height="6" fill="#fff"/><rect x="120" y="54" width="6" height="6" fill="#fff"/><rect x="132" y="54" width="6" height="6" fill="#fff"/><rect x="24" y="60" width="6" height="6" fill="#fff"/><rect x="48" y="60" width="6" height="6" fill="#fff"/><rect x="54" y="60" width="6" height="6" fill="#fff"/><rect x="60" y="60" width="6" height="6" fill="#fff"/><rect x="78" y="60" width="6" height="6" fill="#fff"/><rect x="84" y="60" width="6" height="6" fill="#fff"/><rect x="90" y="60" width="6" height="6" fill="#fff"/><rect x="102" y="60" width="6" height="6" fill="#fff"/><rect x="108" y="60" width="6" height="6" fill="#fff"/><rect x="126" y="60" width="6" height="6" fill="#fff"/><rect x="138" y="60" width="6" height="6" fill="#fff"/><rect x="144" y="60" width="6" height="6" fill="#fff"/><rect x="168" y="60" width="6" height="6" fill="#fff"/><rect x="18" y="66" width="6" height="6" fill="#fff"/><rect x="30" y="66" width="6" height="6" fill="#fff"/><rect x="66" y="66" width="6" height="6" fill="#fff"/><rect x="72" y="66" width="6" height="6" fill="#fff"/><rect x="78" y="66" width="6" height="6" fill="#fff"/><rect x="84" y="66" width="6" height="6" fill="#fff"/><rect x="120" y="66" width="6" height="6" fill="#fff"/><rect x="138" y="66" width="6" height="6" fill="#fff"/><rect x="156" y="66" width="6" height="6" fill="#fff"/><rect x="174" y="66" width="6" height="6" fill="#fff"/><rect x="12" y="72" width="6" height="6" fill="#fff"/><rect x="24" y="72" width="6" height="6" fill="#fff"/><rect x="36" y="72" width="6" height="6" fill="#fff"/><rect x="42" y="72" width="6" height="6" fill="#fff"/><rect x="48" y="72" width="6" height="6" fill="#fff"/><rect x="66" y="72" width="6" height="6" fill="#fff"/><rect x="78" y="72" width="6" height="6" fill="#fff"/><rect x="84" y="72" width="6" height="6" fill="#fff"/><rect x="120" y="72" width="6" height="6" fill="#fff"/><rect x="138" y="72" width="6" height="6" fill="#fff"/><rect x="150" y="72" width="6" height="6" fill="#fff"/><rect x="156" y="72" width="6" height="6" fill="#fff"/><rect x="162" y="72" width="6" height="6" fill="#fff"/><rect x="180" y="72" width="6" height="6" fill="#fff"/><rect x="18" y="78" width="6" height="6" fill="#fff"/><rect x="30" y="78" width="6" height="6" fill="#fff"/><rect x="36" y="78" width="6" height="6" fill="#fff"/><rect x="54" y="78" width="6" height="6" fill="#fff"/><rect x="78" y="78" width="6" height="6" fill="#fff"/><rect x="90" y="78" width="6" height="6" fill="#fff"/><rect x="96" y="78" width="6" height="6" fill="#fff"/><rect x="102" y="78" width="6" height="6" fill="#fff"/><rect x="120" y="78" width="6" height="6" fill="#fff"/><rect x="126" y="78" width="6" height="6" fill="#fff"/><rect x="156" y="78" width="6" height="6" fill="#fff"/><rect x="180" y="78" width="6" height="6" fill="#fff"/><rect x="12" y="84" width="6" height="6" fill="#fff"/><rect x="24" y="84" width="6" height="6" fill="#fff"/><rect x="48" y="84" width="6" height="6" fill="#fff"/><rect x="60" y="84" width="6" height="6" fill="#fff"/><rect x="78" y="84" width="6" height="6" fill="#fff"/><rect x="96" y="84" width="6" height="6" fill="#fff"/><rect x="102" y="84" width="6" height="6" fill="#fff"/><rect x="114" y="84" width="6" height="6" fill="#fff"/><rect x="120" y="84" width="6" height="6" fill="#fff"/><rect x="126" y="84" width="6" height="6" fill="#fff"/><rect x="138" y="84" width="6" height="6" fill="#fff"/><rect x="144" y="84" width="6" height="6" fill="#fff"/><rect x="150" y="84" width="6" height="6" fill="#fff"/><rect x="156" y="84" width="6" height="6" fill="#fff"/><rect x="162" y="84" width="6" height="6" fill="#fff"/><rect x="180" y="84" width="6" height="6" fill="#fff"/><rect x="18" y="90" width="6" height="6" fill="#fff"/><rect x="60" y="90" width="6" height="6" fill="#fff"/><rect x="72" y="90" width="6" height="6" fill="#fff"/><rect x="78" y="90" width="6" height="6" fill="#fff"/><rect x="96" y="90" width="6" height="6" fill="#fff"/><rect x="102" y="90" width="6" height="6" fill="#fff"/><rect x="108" y="90" width="6" height="6" fill="#fff"/><rect x="120" y="90" width="6" height="6" fill="#fff"/><rect x="156" y="90" width="6" height="6" fill="#fff"/><rect x="168" y="90" width="6" height="6" fill="#fff"/><rect x="174" y="90" width="6" height="6" fill="#fff"/><rect x="12" y="96" width="6" height="6" fill="#fff"/><rect x="24" y="96" width="6" height="6" fill="#fff"/><rect x="36" y="96" width="6" height="6" fill="#fff"/><rect x="48" y="96" width="6" height="6" fill="#fff"/><rect x="66" y="96" width="6" height="6" fill="#fff"/><rect x="96" y="96" width="6" height="6" fill="#fff"/><rect x="150" y="96" width="6" height="6" fill="#fff"/><rect x="156" y="96" width="6" height="6" fill="#fff"/><rect x="174" y="96" width="6" height="6" fill="#fff"/><rect x="180" y="96" width="6" height="6" fill="#fff"/><rect x="18" y="102" width="6" height="6" fill="#fff"/><rect x="24" y="102" width="6" height="6" fill="#fff"/><rect x="30" y="102" width="6" height="6" fill="#fff"/><rect x="42" y="102" width="6" height="6" fill="#fff"/><rect x="60" y="102" width="6" height="6" fill="#fff"/><rect x="72" y="102" width="6" height="6" fill="#fff"/><rect x="78" y="102" width="6" height="6" fill="#fff"/><rect x="90" y="102" width="6" height="6" fill="#fff"/><rect x="96" y="102" width="6" height="6" fill="#fff"/><rect x="102" y="102" width="6" height="6" fill="#fff"/><rect x="108" y="102" width="6" height="6" fill="#fff"/><rect x="114" y="102" width="6" height="6" fill="#fff"/><rect x="132" y="102" width="6" height="6" fill="#fff"/><rect x="156" y="102" width="6" height="6" fill="#fff"/><rect x="162" y="102" width="6" height="6" fill="#fff"/><rect x="174" y="102" width="6" height="6" fill="#fff"/><rect x="180" y="102" width="6" height="6" fill="#fff"/><rect x="12" y="108" width="6" height="6" fill="#fff"/><rect x="24" y="108" width="6" height="6" fill="#fff"/><rect x="30" y="108" width="6" height="6" fill="#fff"/><rect x="42" y="108" width="6" height="6" fill="#fff"/><rect x="48" y="108" width="6" height="6" fill="#fff"/><rect x="54" y="108" width="6" height="6" fill="#fff"/><rect x="66" y="108" width="6" height="6" fill="#fff"/><rect x="84" y="108" width="6" height="6" fill="#fff"/><rect x="96" y="108" width="6" height="6" fill="#fff"/><rect x="102" y="108" width="6" height="6" fill="#fff"/><rect x="114" y="108" width="6" height="6" fill="#fff"/><rect x="120" y="108" width="6" height="6" fill="#fff"/><rect x="126" y="108" width="6" height="6" fill="#fff"/><rect x="138" y="108" width="6" height="6" fill="#fff"/><rect x="144" y="108" width="6" height="6" fill="#fff"/><rect x="156" y="108" width="6" height="6" fill="#fff"/><rect x="162" y="108" width="6" height="6" fill="#fff"/><rect x="18" y="114" width="6" height="6" fill="#fff"/><rect x="42" y="114" width="6" height="6" fill="#fff"/><rect x="54" y="114" width="6" height="6" fill="#fff"/><rect x="96" y="114" width="6" height="6" fill="#fff"/><rect x="102" y="114" width="6" height="6" fill="#fff"/><rect x="108" y="114" width="6" height="6" fill="#fff"/><rect x="120" y="114" width="6" height="6" fill="#fff"/><rect x="138" y="114" width="6" height="6" fill="#fff"/><rect x="144" y="114" width="6" height="6" fill="#fff"/><rect x="150" y="114" width="6" height="6" fill="#fff"/><rect x="156" y="114" width="6" height="6" fill="#fff"/><rect x="168" y="114" width="6" height="6" fill="#fff"/><rect x="174" y="114" width="6" height="6" fill="#fff"/><rect x="12" y="120" width="6" height="6" fill="#fff"/><rect x="24" y="120" width="6" height="6" fill="#fff"/><rect x="30" y="120" width="6" height="6" fill="#fff"/><rect x="48" y="120" width="6" height="6" fill="#fff"/><rect x="54" y="120" width="6" height="6" fill="#fff"/><rect x="78" y="120" width="6" height="6" fill="#fff"/><rect x="96" y="120" width="6" height="6" fill="#fff"/><rect x="120" y="120" width="6" height="6" fill="#fff"/><rect x="150" y="120" width="6" height="6" fill="#fff"/><rect x="174" y="120" width="6" height="6" fill="#fff"/><rect x="180" y="120" width="6" height="6" fill="#fff"/><rect x="18" y="126" width="6" height="6" fill="#fff"/><rect x="42" y="126" width="6" height="6" fill="#fff"/><rect x="54" y="126" width="6" height="6" fill="#fff"/><rect x="60" y="126" width="6" height="6" fill="#fff"/><rect x="66" y="126" width="6" height="6" fill="#fff"/><rect x="72" y="126" width="6" height="6" fill="#fff"/><rect x="96" y="126" width="6" height="6" fill="#fff"/><rect x="102" y="126" width="6" height="6" fill="#fff"/><rect x="114" y="126" width="6" height="6" fill="#fff"/><rect x="120" y="126" width="6" height="6" fill="#fff"/><rect x="132" y="126" width="6" height="6" fill="#fff"/><rect x="150" y="126" width="6" height="6" fill="#fff"/><rect x="156" y="126" width="6" height="6" fill="#fff"/><rect x="162" y="126" width="6" height="6" fill="#fff"/><rect x="180" y="126" width="6" height="6" fill="#fff"/><rect x="12" y="132" width="6" height="6" fill="#fff"/><rect x="48" y="132" width="6" height="6" fill="#fff"/><rect x="60" y="132" width="6" height="6" fill="#fff"/><rect x="66" y="132" width="6" height="6" fill="#fff"/><rect x="72" y="132" width="6" height="6" fill="#fff"/><rect x="90" y="132" width="6" height="6" fill="#fff"/><rect x="96" y="132" width="6" height="6" fill="#fff"/><rect x="102" y="132" width="6" height="6" fill="#fff"/><rect x="126" y="132" width="6" height="6" fill="#fff"/><rect x="132" y="132" width="6" height="6" fill="#fff"/><rect x="138" y="132" width="6" height="6" fill="#fff"/><rect x="144" y="132" width="6" height="6" fill="#fff"/><rect x="150" y="132" width="6" height="6" fill="#fff"/><rect x="156" y="132" width="6" height="6" fill="#fff"/><rect x="174" y="132" width="6" height="6" fill="#fff"/><rect x="180" y="132" width="6" height="6" fill="#fff"/><rect x="60" y="138" width="6" height="6" fill="#fff"/><rect x="66" y="138" width="6" height="6" fill="#fff"/><rect x="72" y="138" width="6" height="6" fill="#fff"/><rect x="78" y="138" width="6" height="6" fill="#fff"/><rect x="120" y="138" width="6" height="6" fill="#fff"/><rect x="126" y="138" width="6" height="6" fill="#fff"/><rect x="132" y="138" width="6" height="6" fill="#fff"/><rect x="156" y="138" width="6" height="6" fill="#fff"/><rect x="162" y="138" width="6" height="6" fill="#fff"/><rect x="168" y="138" width="6" height="6" fill="#fff"/><rect x="174" y="138" width="6" height="6" fill="#fff"/><rect x="12" y="144" width="6" height="6" fill="#fff"/><rect x="18" y="144" width="6" height="6" fill="#fff"/><rect x="24" y="144" width="6" height="6" fill="#fff"/><rect x="30" y="144" width="6" height="6" fill="#fff"/><rect x="36" y="144" width="6" height="6" fill="#fff"/><rect x="42" y="144" width="6" height="6" fill="#fff"/><rect x="48" y="144" width="6" height="6" fill="#fff"/><rect x="60" y="144" width="6" height="6" fill="#fff"/><rect x="66" y="144" width="6" height="6" fill="#fff"/><rect x="72" y="144" width="6" height="6" fill="#fff"/><rect x="84" y="144" width="6" height="6" fill="#fff"/><rect x="108" y="144" width="6" height="6" fill="#fff"/><rect x="120" y="144" width="6" height="6" fill="#fff"/><rect x="132" y="144" width="6" height="6" fill="#fff"/><rect x="144" y="144" width="6" height="6" fill="#fff"/><rect x="156" y="144" width="6" height="6" fill="#fff"/><rect x="162" y="144" width="6" height="6" fill="#fff"/><rect x="174" y="144" width="6" height="6" fill="#fff"/><rect x="180" y="144" width="6" height="6" fill="#fff"/><rect x="12" y="150" width="6" height="6" fill="#fff"/><rect x="48" y="150" width="6" height="6" fill="#fff"/><rect x="72" y="150" width="6" height="6" fill="#fff"/><rect x="78" y="150" width="6" height="6" fill="#fff"/><rect x="84" y="150" width="6" height="6" fill="#fff"/><rect x="102" y="150" width="6" height="6" fill="#fff"/><rect x="108" y="150" width="6" height="6" fill="#fff"/><rect x="114" y="150" width="6" height="6" fill="#fff"/><rect x="120" y="150" width="6" height="6" fill="#fff"/><rect x="132" y="150" width="6" height="6" fill="#fff"/><rect x="156" y="150" width="6" height="6" fill="#fff"/><rect x="162" y="150" width="6" height="6" fill="#fff"/><rect x="180" y="150" width="6" height="6" fill="#fff"/><rect x="12" y="156" width="6" height="6" fill="#fff"/><rect x="24" y="156" width="6" height="6" fill="#fff"/><rect x="30" y="156" width="6" height="6" fill="#fff"/><rect x="36" y="156" width="6" height="6" fill="#fff"/><rect x="48" y="156" width="6" height="6" fill="#fff"/><rect x="66" y="156" width="6" height="6" fill="#fff"/><rect x="84" y="156" width="6" height="6" fill="#fff"/><rect x="102" y="156" width="6" height="6" fill="#fff"/><rect x="114" y="156" width="6" height="6" fill="#fff"/><rect x="120" y="156" width="6" height="6" fill="#fff"/><rect x="126" y="156" width="6" height="6" fill="#fff"/><rect x="132" y="156" width="6" height="6" fill="#fff"/><rect x="138" y="156" width="6" height="6" fill="#fff"/><rect x="144" y="156" width="6" height="6" fill="#fff"/><rect x="150" y="156" width="6" height="6" fill="#fff"/><rect x="156" y="156" width="6" height="6" fill="#fff"/><rect x="162" y="156" width="6" height="6" fill="#fff"/><rect x="174" y="156" width="6" height="6" fill="#fff"/><rect x="180" y="156" width="6" height="6" fill="#fff"/><rect x="12" y="162" width="6" height="6" fill="#fff"/><rect x="24" y="162" width="6" height="6" fill="#fff"/><rect x="30" y="162" width="6" height="6" fill="#fff"/><rect x="36" y="162" width="6" height="6" fill="#fff"/><rect x="48" y="162" width="6" height="6" fill="#fff"/><rect x="66" y="162" width="6" height="6" fill="#fff"/><rect x="84" y="162" width="6" height="6" fill="#fff"/><rect x="96" y="162" width="6" height="6" fill="#fff"/><rect x="120" y="162" width="6" height="6" fill="#fff"/><rect x="126" y="162" width="6" height="6" fill="#fff"/><rect x="132" y="162" width="6" height="6" fill="#fff"/><rect x="138" y="162" width="6" height="6" fill="#fff"/><rect x="162" y="162" width="6" height="6" fill="#fff"/><rect x="174" y="162" width="6" height="6" fill="#fff"/><rect x="12" y="168" width="6" height="6" fill="#fff"/><rect x="24" y="168" width="6" height="6" fill="#fff"/><rect x="30" y="168" width="6" height="6" fill="#fff"/><rect x="36" y="168" width="6" height="6" fill="#fff"/><rect x="48" y="168" width="6" height="6" fill="#fff"/><rect x="60" y="168" width="6" height="6" fill="#fff"/><rect x="78" y="168" width="6" height="6" fill="#fff"/><rect x="96" y="168" width="6" height="6" fill="#fff"/><rect x="102" y="168" width="6" height="6" fill="#fff"/><rect x="126" y="168" width="6" height="6" fill="#fff"/><rect x="132" y="168" width="6" height="6" fill="#fff"/><rect x="144" y="168" width="6" height="6" fill="#fff"/><rect x="150" y="168" width="6" height="6" fill="#fff"/><rect x="162" y="168" width="6" height="6" fill="#fff"/><rect x="174" y="168" width="6" height="6" fill="#fff"/><rect x="180" y="168" width="6" height="6" fill="#fff"/><rect x="12" y="174" width="6" height="6" fill="#fff"/><rect x="48" y="174" width="6" height="6" fill="#fff"/><rect x="66" y="174" width="6" height="6" fill="#fff"/><rect x="96" y="174" width="6" height="6" fill="#fff"/><rect x="102" y="174" width="6" height="6" fill="#fff"/><rect x="108" y="174" width="6" height="6" fill="#fff"/><rect x="114" y="174" width="6" height="6" fill="#fff"/><rect x="120" y="174" width="6" height="6" fill="#fff"/><rect x="126" y="174" width="6" height="6" fill="#fff"/><rect x="132" y="174" width="6" height="6" fill="#fff"/><rect x="144" y="174" width="6" height="6" fill="#fff"/><rect x="150" y="174" width="6" height="6" fill="#fff"/><rect x="180" y="174" width="6" height="6" fill="#fff"/><rect x="12" y="180" width="6" height="6" fill="#fff"/><rect x="18" y="180" width="6" height="6" fill="#fff"/><rect x="24" y="180" width="6" height="6" fill="#fff"/><rect x="30" y="180" width="6" height="6" fill="#fff"/><rect x="36" y="180" width="6" height="6" fill="#fff"/><rect x="42" y="180" width="6" height="6" fill="#fff"/><rect x="48" y="180" width="6" height="6" fill="#fff"/><rect x="72" y="180" width="6" height="6" fill="#fff"/><rect x="90" y="180" width="6" height="6" fill="#fff"/><rect x="96" y="180" width="6" height="6" fill="#fff"/><rect x="102" y="180" width="6" height="6" fill="#fff"/><rect x="126" y="180" width="6" height="6" fill="#fff"/><rect x="138" y="180" width="6" height="6" fill="#fff"/><rect x="144" y="180" width="6" height="6" fill="#fff"/><rect x="150" y="180" width="6" height="6" fill="#fff"/><rect x="168" y="180" width="6" height="6" fill="#fff"/><rect x="180" y="180" width="6" height="6" fill="#fff"/></svg>