<?xml version="1.0" standalone="no"?>
<svg xmlns="http://www.w3.org/2000/svg" version="1.1" width="232" height="232">
	<!-- Created with https://api.qrserver.com (QR Code API, see goQR.me/api for information) -->
	<title>QR Code</title>
	<desc>https://www.spiess-consulting-solutions.de/vcard.html</desc>
	<rect style="fill:rgb(255, 255, 255);fill-opacity:1" x="0" y="0" width="232" height="232" />
	<g id="elements">
		<path style="fill:rgb(0, 0, 0)" d="M 0,0 l 8,0 0,8 -8,0 z M 8,0 l 8,0 0,8 -8,0 z M 16,0 l 8,0 0,8 -8,0 z M 24,0 l 8,0 0,8 -8,0 z M 32,0 l 8,0 0,8 -8,0 z M 40,0 l 8,0 0,8 -8,0 z M 48,0 l 8,0 0,8 -8,0 z M 72,0 l 8,0 0,8 -8,0 z M 80,0 l 8,0 0,8 -8,0 z M 88,0 l 8,0 0,8 -8,0 z M 104,0 l 8,0 0,8 -8,0 z M 128,0 l 8,0 0,8 -8,0 z M 152,0 l 8,0 0,8 -8,0 z M 160,0 l 8,0 0,8 -8,0 z M 176,0 l 8,0 0,8 -8,0 z M 184,0 l 8,0 0,8 -8,0 z M 192,0 l 8,0 0,8 -8,0 z M 200,0 l 8,0 0,8 -8,0 z M 208,0 l 8,0 0,8 -8,0 z M 216,0 l 8,0 0,8 -8,0 z M 224,0 l 8,0 0,8 -8,0 z M 0,8 l 8,0 0,8 -8,0 z M 48,8 l 8,0 0,8 -8,0 z M 64,8 l 8,0 0,8 -8,0 z M 72,8 l 8,0 0,8 -8,0 z M 80,8 l 8,0 0,8 -8,0 z M 96,8 l 8,0 0,8 -8,0 z M 104,8 l 8,0 0,8 -8,0 z M 112,8 l 8,0 0,8 -8,0 z M 120,8 l 8,0 0,8 -8,0 z M 128,8 l 8,0 0,8 -8,0 z M 136,8 l 8,0 0,8 -8,0 z M 144,8 l 8,0 0,8 -8,0 z M 176,8 l 8,0 0,8 -8,0 z M 224,8 l 8,0 0,8 -8,0 z M 0,16 l 8,0 0,8 -8,0 z M 16,16 l 8,0 0,8 -8,0 z M 24,16 l 8,0 0,8 -8,0 z M 32,16 l 8,0 0,8 -8,0 z M 48,16 l 8,0 0,8 -8,0 z M 72,16 l 8,0 0,8 -8,0 z M 96,16 l 8,0 0,8 -8,0 z M 112,16 l 8,0 0,8 -8,0 z M 120,16 l 8,0 0,8 -8,0 z M 152,16 l 8,0 0,8 -8,0 z M 160,16 l 8,0 0,8 -8,0 z M 176,16 l 8,0 0,8 -8,0 z M 192,16 l 8,0 0,8 -8,0 z M 200,16 l 8,0 0,8 -8,0 z M 208,16 l 8,0 0,8 -8,0 z M 224,16 l 8,0 0,8 -8,0 z M 0,24 l 8,0 0,8 -8,0 z M 16,24 l 8,0 0,8 -8,0 z M 24,24 l 8,0 0,8 -8,0 z M 32,24 l 8,0 0,8 -8,0 z M 48,24 l 8,0 0,8 -8,0 z M 64,24 l 8,0 0,8 -8,0 z M 80,24 l 8,0 0,8 -8,0 z M 88,24 l 8,0 0,8 -8,0 z M 96,24 l 8,0 0,8 -8,0 z M 104,24 l 8,0 0,8 -8,0 z M 112,24 l 8,0 0,8 -8,0 z M 136,24 l 8,0 0,8 -8,0 z M 152,24 l 8,0 0,8 -8,0 z M 176,24 l 8,0 0,8 -8,0 z M 192,24 l 8,0 0,8 -8,0 z M 200,24 l 8,0 0,8 -8,0 z M 208,24 l 8,0 0,8 -8,0 z M 224,24 l 8,0 0,8 -8,0 z M 0,32 l 8,0 0,8 -8,0 z M 16,32 l 8,0 0,8 -8,0 z M 24,32 l 8,0 0,8 -8,0 z M 32,32 l 8,0 0,8 -8,0 z M 48,32 l 8,0 0,8 -8,0 z M 88,32 l 8,0 0,8 -8,0 z M 104,32 l 8,0 0,8 -8,0 z M 128,32 l 8,0 0,8 -8,0 z M 152,32 l 8,0 0,8 -8,0 z M 160,32 l 8,0 0,8 -8,0 z M 176,32 l 8,0 0,8 -8,0 z M 192,32 l 8,0 0,8 -8,0 z M 200,32 l 8,0 0,8 -8,0 z M 208,32 l 8,0 0,8 -8,0 z M 224,32 l 8,0 0,8 -8,0 z M 0,40 l 8,0 0,8 -8,0 z M 48,40 l 8,0 0,8 -8,0 z M 64,40 l 8,0 0,8 -8,0 z M 72,40 l 8,0 0,8 -8,0 z M 80,40 l 8,0 0,8 -8,0 z M 96,40 l 8,0 0,8 -8,0 z M 104,40 l 8,0 0,8 -8,0 z M 112,40 l 8,0 0,8 -8,0 z M 120,40 l 8,0 0,8 -8,0 z M 160,40 l 8,0 0,8 -8,0 z M 176,40 l 8,0 0,8 -8,0 z M 224,40 l 8,0 0,8 -8,0 z M 0,48 l 8,0 0,8 -8,0 z M 8,48 l 8,0 0,8 -8,0 z M 16,48 l 8,0 0,8 -8,0 z M 24,48 l 8,0 0,8 -8,0 z M 32,48 l 8,0 0,8 -8,0 z M 40,48 l 8,0 0,8 -8,0 z M 48,48 l 8,0 0,8 -8,0 z M 64,48 l 8,0 0,8 -8,0 z M 80,48 l 8,0 0,8 -8,0 z M 96,48 l 8,0 0,8 -8,0 z M 112,48 l 8,0 0,8 -8,0 z M 128,48 l 8,0 0,8 -8,0 z M 144,48 l 8,0 0,8 -8,0 z M 160,48 l 8,0 0,8 -8,0 z M 176,48 l 8,0 0,8 -8,0 z M 184,48 l 8,0 0,8 -8,0 z M 192,48 l 8,0 0,8 -8,0 z M 200,48 l 8,0 0,8 -8,0 z M 208,48 l 8,0 0,8 -8,0 z M 216,48 l 8,0 0,8 -8,0 z M 224,48 l 8,0 0,8 -8,0 z M 72,56 l 8,0 0,8 -8,0 z M 80,56 l 8,0 0,8 -8,0 z M 88,56 l 8,0 0,8 -8,0 z M 120,56 l 8,0 0,8 -8,0 z M 128,56 l 8,0 0,8 -8,0 z M 152,56 l 8,0 0,8 -8,0 z M 160,56 l 8,0 0,8 -8,0 z M 0,64 l 8,0 0,8 -8,0 z M 8,64 l 8,0 0,8 -8,0 z M 16,64 l 8,0 0,8 -8,0 z M 24,64 l 8,0 0,8 -8,0 z M 32,64 l 8,0 0,8 -8,0 z M 48,64 l 8,0 0,8 -8,0 z M 56,64 l 8,0 0,8 -8,0 z M 64,64 l 8,0 0,8 -8,0 z M 80,64 l 8,0 0,8 -8,0 z M 88,64 l 8,0 0,8 -8,0 z M 96,64 l 8,0 0,8 -8,0 z M 104,64 l 8,0 0,8 -8,0 z M 112,64 l 8,0 0,8 -8,0 z M 120,64 l 8,0 0,8 -8,0 z M 128,64 l 8,0 0,8 -8,0 z M 136,64 l 8,0 0,8 -8,0 z M 152,64 l 8,0 0,8 -8,0 z M 168,64 l 8,0 0,8 -8,0 z M 184,64 l 8,0 0,8 -8,0 z M 200,64 l 8,0 0,8 -8,0 z M 216,64 l 8,0 0,8 -8,0 z M 8,72 l 8,0 0,8 -8,0 z M 24,72 l 8,0 0,8 -8,0 z M 88,72 l 8,0 0,8 -8,0 z M 96,72 l 8,0 0,8 -8,0 z M 112,72 l 8,0 0,8 -8,0 z M 128,72 l 8,0 0,8 -8,0 z M 136,72 l 8,0 0,8 -8,0 z M 144,72 l 8,0 0,8 -8,0 z M 152,72 l 8,0 0,8 -8,0 z M 160,72 l 8,0 0,8 -8,0 z M 176,72 l 8,0 0,8 -8,0 z M 184,72 l 8,0 0,8 -8,0 z M 192,72 l 8,0 0,8 -8,0 z M 224,72 l 8,0 0,8 -8,0 z M 8,80 l 8,0 0,8 -8,0 z M 16,80 l 8,0 0,8 -8,0 z M 24,80 l 8,0 0,8 -8,0 z M 48,80 l 8,0 0,8 -8,0 z M 64,80 l 8,0 0,8 -8,0 z M 72,80 l 8,0 0,8 -8,0 z M 80,80 l 8,0 0,8 -8,0 z M 96,80 l 8,0 0,8 -8,0 z M 104,80 l 8,0 0,8 -8,0 z M 120,80 l 8,0 0,8 -8,0 z M 128,80 l 8,0 0,8 -8,0 z M 160,80 l 8,0 0,8 -8,0 z M 168,80 l 8,0 0,8 -8,0 z M 16,88 l 8,0 0,8 -8,0 z M 24,88 l 8,0 0,8 -8,0 z M 40,88 l 8,0 0,8 -8,0 z M 56,88 l 8,0 0,8 -8,0 z M 72,88 l 8,0 0,8 -8,0 z M 112,88 l 8,0 0,8 -8,0 z M 120,88 l 8,0 0,8 -8,0 z M 128,88 l 8,0 0,8 -8,0 z M 144,88 l 8,0 0,8 -8,0 z M 152,88 l 8,0 0,8 -8,0 z M 176,88 l 8,0 0,8 -8,0 z M 184,88 l 8,0 0,8 -8,0 z M 200,88 l 8,0 0,8 -8,0 z M 216,88 l 8,0 0,8 -8,0 z M 0,96 l 8,0 0,8 -8,0 z M 8,96 l 8,0 0,8 -8,0 z M 16,96 l 8,0 0,8 -8,0 z M 24,96 l 8,0 0,8 -8,0 z M 32,96 l 8,0 0,8 -8,0 z M 40,96 l 8,0 0,8 -8,0 z M 48,96 l 8,0 0,8 -8,0 z M 56,96 l 8,0 0,8 -8,0 z M 64,96 l 8,0 0,8 -8,0 z M 72,96 l 8,0 0,8 -8,0 z M 96,96 l 8,0 0,8 -8,0 z M 104,96 l 8,0 0,8 -8,0 z M 120,96 l 8,0 0,8 -8,0 z M 128,96 l 8,0 0,8 -8,0 z M 136,96 l 8,0 0,8 -8,0 z M 200,96 l 8,0 0,8 -8,0 z M 208,96 l 8,0 0,8 -8,0 z M 0,104 l 8,0 0,8 -8,0 z M 8,104 l 8,0 0,8 -8,0 z M 16,104 l 8,0 0,8 -8,0 z M 32,104 l 8,0 0,8 -8,0 z M 40,104 l 8,0 0,8 -8,0 z M 64,104 l 8,0 0,8 -8,0 z M 88,104 l 8,0 0,8 -8,0 z M 104,104 l 8,0 0,8 -8,0 z M 128,104 l 8,0 0,8 -8,0 z M 152,104 l 8,0 0,8 -8,0 z M 160,104 l 8,0 0,8 -8,0 z M 176,104 l 8,0 0,8 -8,0 z M 192,104 l 8,0 0,8 -8,0 z M 224,104 l 8,0 0,8 -8,0 z M 0,112 l 8,0 0,8 -8,0 z M 24,112 l 8,0 0,8 -8,0 z M 32,112 l 8,0 0,8 -8,0 z M 40,112 l 8,0 0,8 -8,0 z M 48,112 l 8,0 0,8 -8,0 z M 56,112 l 8,0 0,8 -8,0 z M 64,112 l 8,0 0,8 -8,0 z M 72,112 l 8,0 0,8 -8,0 z M 96,112 l 8,0 0,8 -8,0 z M 104,112 l 8,0 0,8 -8,0 z M 112,112 l 8,0 0,8 -8,0 z M 120,112 l 8,0 0,8 -8,0 z M 160,112 l 8,0 0,8 -8,0 z M 168,112 l 8,0 0,8 -8,0 z M 184,112 l 8,0 0,8 -8,0 z M 200,112 l 8,0 0,8 -8,0 z M 208,112 l 8,0 0,8 -8,0 z M 56,120 l 8,0 0,8 -8,0 z M 72,120 l 8,0 0,8 -8,0 z M 88,120 l 8,0 0,8 -8,0 z M 96,120 l 8,0 0,8 -8,0 z M 120,120 l 8,0 0,8 -8,0 z M 128,120 l 8,0 0,8 -8,0 z M 144,120 l 8,0 0,8 -8,0 z M 160,120 l 8,0 0,8 -8,0 z M 168,120 l 8,0 0,8 -8,0 z M 184,120 l 8,0 0,8 -8,0 z M 192,120 l 8,0 0,8 -8,0 z M 216,120 l 8,0 0,8 -8,0 z M 0,128 l 8,0 0,8 -8,0 z M 8,128 l 8,0 0,8 -8,0 z M 32,128 l 8,0 0,8 -8,0 z M 48,128 l 8,0 0,8 -8,0 z M 64,128 l 8,0 0,8 -8,0 z M 72,128 l 8,0 0,8 -8,0 z M 104,128 l 8,0 0,8 -8,0 z M 112,128 l 8,0 0,8 -8,0 z M 136,128 l 8,0 0,8 -8,0 z M 152,128 l 8,0 0,8 -8,0 z M 184,128 l 8,0 0,8 -8,0 z M 200,128 l 8,0 0,8 -8,0 z M 208,128 l 8,0 0,8 -8,0 z M 0,136 l 8,0 0,8 -8,0 z M 32,136 l 8,0 0,8 -8,0 z M 40,136 l 8,0 0,8 -8,0 z M 64,136 l 8,0 0,8 -8,0 z M 80,136 l 8,0 0,8 -8,0 z M 88,136 l 8,0 0,8 -8,0 z M 128,136 l 8,0 0,8 -8,0 z M 136,136 l 8,0 0,8 -8,0 z M 144,136 l 8,0 0,8 -8,0 z M 152,136 l 8,0 0,8 -8,0 z M 168,136 l 8,0 0,8 -8,0 z M 176,136 l 8,0 0,8 -8,0 z M 184,136 l 8,0 0,8 -8,0 z M 192,136 l 8,0 0,8 -8,0 z M 208,136 l 8,0 0,8 -8,0 z M 224,136 l 8,0 0,8 -8,0 z M 0,144 l 8,0 0,8 -8,0 z M 16,144 l 8,0 0,8 -8,0 z M 24,144 l 8,0 0,8 -8,0 z M 32,144 l 8,0 0,8 -8,0 z M 48,144 l 8,0 0,8 -8,0 z M 56,144 l 8,0 0,8 -8,0 z M 112,144 l 8,0 0,8 -8,0 z M 120,144 l 8,0 0,8 -8,0 z M 128,144 l 8,0 0,8 -8,0 z M 144,144 l 8,0 0,8 -8,0 z M 160,144 l 8,0 0,8 -8,0 z M 168,144 l 8,0 0,8 -8,0 z M 176,144 l 8,0 0,8 -8,0 z M 184,144 l 8,0 0,8 -8,0 z M 208,144 l 8,0 0,8 -8,0 z M 0,152 l 8,0 0,8 -8,0 z M 32,152 l 8,0 0,8 -8,0 z M 56,152 l 8,0 0,8 -8,0 z M 64,152 l 8,0 0,8 -8,0 z M 72,152 l 8,0 0,8 -8,0 z M 96,152 l 8,0 0,8 -8,0 z M 128,152 l 8,0 0,8 -8,0 z M 152,152 l 8,0 0,8 -8,0 z M 184,152 l 8,0 0,8 -8,0 z M 192,152 l 8,0 0,8 -8,0 z M 216,152 l 8,0 0,8 -8,0 z M 0,160 l 8,0 0,8 -8,0 z M 16,160 l 8,0 0,8 -8,0 z M 32,160 l 8,0 0,8 -8,0 z M 40,160 l 8,0 0,8 -8,0 z M 48,160 l 8,0 0,8 -8,0 z M 64,160 l 8,0 0,8 -8,0 z M 96,160 l 8,0 0,8 -8,0 z M 104,160 l 8,0 0,8 -8,0 z M 112,160 l 8,0 0,8 -8,0 z M 136,160 l 8,0 0,8 -8,0 z M 160,160 l 8,0 0,8 -8,0 z M 168,160 l 8,0 0,8 -8,0 z M 176,160 l 8,0 0,8 -8,0 z M 184,160 l 8,0 0,8 -8,0 z M 192,160 l 8,0 0,8 -8,0 z M 208,160 l 8,0 0,8 -8,0 z M 216,160 l 8,0 0,8 -8,0 z M 224,160 l 8,0 0,8 -8,0 z M 64,168 l 8,0 0,8 -8,0 z M 80,168 l 8,0 0,8 -8,0 z M 88,168 l 8,0 0,8 -8,0 z M 128,168 l 8,0 0,8 -8,0 z M 136,168 l 8,0 0,8 -8,0 z M 144,168 l 8,0 0,8 -8,0 z M 152,168 l 8,0 0,8 -8,0 z M 160,168 l 8,0 0,8 -8,0 z M 192,168 l 8,0 0,8 -8,0 z M 200,168 l 8,0 0,8 -8,0 z M 208,168 l 8,0 0,8 -8,0 z M 216,168 l 8,0 0,8 -8,0 z M 224,168 l 8,0 0,8 -8,0 z M 0,176 l 8,0 0,8 -8,0 z M 8,176 l 8,0 0,8 -8,0 z M 16,176 l 8,0 0,8 -8,0 z M 24,176 l 8,0 0,8 -8,0 z M 32,176 l 8,0 0,8 -8,0 z M 40,176 l 8,0 0,8 -8,0 z M 48,176 l 8,0 0,8 -8,0 z M 64,176 l 8,0 0,8 -8,0 z M 80,176 l 8,0 0,8 -8,0 z M 112,176 l 8,0 0,8 -8,0 z M 120,176 l 8,0 0,8 -8,0 z M 128,176 l 8,0 0,8 -8,0 z M 136,176 l 8,0 0,8 -8,0 z M 152,176 l 8,0 0,8 -8,0 z M 160,176 l 8,0 0,8 -8,0 z M 176,176 l 8,0 0,8 -8,0 z M 192,176 l 8,0 0,8 -8,0 z M 200,176 l 8,0 0,8 -8,0 z M 208,176 l 8,0 0,8 -8,0 z M 0,184 l 8,0 0,8 -8,0 z M 48,184 l 8,0 0,8 -8,0 z M 72,184 l 8,0 0,8 -8,0 z M 88,184 l 8,0 0,8 -8,0 z M 96,184 l 8,0 0,8 -8,0 z M 112,184 l 8,0 0,8 -8,0 z M 144,184 l 8,0 0,8 -8,0 z M 152,184 l 8,0 0,8 -8,0 z M 160,184 l 8,0 0,8 -8,0 z M 192,184 l 8,0 0,8 -8,0 z M 0,192 l 8,0 0,8 -8,0 z M 16,192 l 8,0 0,8 -8,0 z M 24,192 l 8,0 0,8 -8,0 z M 32,192 l 8,0 0,8 -8,0 z M 48,192 l 8,0 0,8 -8,0 z M 64,192 l 8,0 0,8 -8,0 z M 72,192 l 8,0 0,8 -8,0 z M 96,192 l 8,0 0,8 -8,0 z M 104,192 l 8,0 0,8 -8,0 z M 120,192 l 8,0 0,8 -8,0 z M 128,192 l 8,0 0,8 -8,0 z M 136,192 l 8,0 0,8 -8,0 z M 160,192 l 8,0 0,8 -8,0 z M 168,192 l 8,0 0,8 -8,0 z M 176,192 l 8,0 0,8 -8,0 z M 184,192 l 8,0 0,8 -8,0 z M 192,192 l 8,0 0,8 -8,0 z M 208,192 l 8,0 0,8 -8,0 z M 0,200 l 8,0 0,8 -8,0 z M 16,200 l 8,0 0,8 -8,0 z M 24,200 l 8,0 0,8 -8,0 z M 32,200 l 8,0 0,8 -8,0 z M 48,200 l 8,0 0,8 -8,0 z M 64,200 l 8,0 0,8 -8,0 z M 88,200 l 8,0 0,8 -8,0 z M 104,200 l 8,0 0,8 -8,0 z M 128,200 l 8,0 0,8 -8,0 z M 144,200 l 8,0 0,8 -8,0 z M 152,200 l 8,0 0,8 -8,0 z M 160,200 l 8,0 0,8 -8,0 z M 184,200 l 8,0 0,8 -8,0 z M 200,200 l 8,0 0,8 -8,0 z M 208,200 l 8,0 0,8 -8,0 z M 224,200 l 8,0 0,8 -8,0 z M 0,208 l 8,0 0,8 -8,0 z M 16,208 l 8,0 0,8 -8,0 z M 24,208 l 8,0 0,8 -8,0 z M 32,208 l 8,0 0,8 -8,0 z M 48,208 l 8,0 0,8 -8,0 z M 64,208 l 8,0 0,8 -8,0 z M 96,208 l 8,0 0,8 -8,0 z M 104,208 l 8,0 0,8 -8,0 z M 112,208 l 8,0 0,8 -8,0 z M 120,208 l 8,0 0,8 -8,0 z M 128,208 l 8,0 0,8 -8,0 z M 136,208 l 8,0 0,8 -8,0 z M 168,208 l 8,0 0,8 -8,0 z M 176,208 l 8,0 0,8 -8,0 z M 184,208 l 8,0 0,8 -8,0 z M 192,208 l 8,0 0,8 -8,0 z M 200,208 l 8,0 0,8 -8,0 z M 208,208 l 8,0 0,8 -8,0 z M 216,208 l 8,0 0,8 -8,0 z M 0,216 l 8,0 0,8 -8,0 z M 48,216 l 8,0 0,8 -8,0 z M 64,216 l 8,0 0,8 -8,0 z M 88,216 l 8,0 0,8 -8,0 z M 112,216 l 8,0 0,8 -8,0 z M 120,216 l 8,0 0,8 -8,0 z M 128,216 l 8,0 0,8 -8,0 z M 152,216 l 8,0 0,8 -8,0 z M 160,216 l 8,0 0,8 -8,0 z M 184,216 l 8,0 0,8 -8,0 z M 200,216 l 8,0 0,8 -8,0 z M 216,216 l 8,0 0,8 -8,0 z M 0,224 l 8,0 0,8 -8,0 z M 8,224 l 8,0 0,8 -8,0 z M 16,224 l 8,0 0,8 -8,0 z M 24,224 l 8,0 0,8 -8,0 z M 32,224 l 8,0 0,8 -8,0 z M 40,224 l 8,0 0,8 -8,0 z M 48,224 l 8,0 0,8 -8,0 z M 64,224 l 8,0 0,8 -8,0 z M 104,224 l 8,0 0,8 -8,0 z M 112,224 l 8,0 0,8 -8,0 z M 136,224 l 8,0 0,8 -8,0 z M 144,224 l 8,0 0,8 -8,0 z M 152,224 l 8,0 0,8 -8,0 z M 184,224 l 8,0 0,8 -8,0 z M 192,224 l 8,0 0,8 -8,0 z M 200,224 l 8,0 0,8 -8,0 z M 208,224 l 8,0 0,8 -8,0 z " />
	</g>
<rect x="101" y="101" width="30" height="30" rx="5" ry="5" fill="#fff"/><image href="data:image/svg+xml;utf8,%3Csvg%0A%20%20%20width%3D%2239.099998mm%22%0A%20%20%20height%3D%2239.099998mm%22%0A%20%20%20viewBox%3D%220%200%2039.099999%2039.099999%22%0A%20%20%20version%3D%221.1%22%0A%20%20%20id%3D%22svg2863%22%0A%20%20%20inkscape%3Aversion%3D%221.2.2%20%28b0a8486%2C%202022-12-01%29%22%0A%20%20%20sodipodi%3Adocname%3D%22SCS_Logo_lightWhite_1mm.svg%22%0A%20%20%20inkscape%3Aexport-filename%3D%22SCS_Logo_lightWhite_2mm.png%22%0A%20%20%20inkscape%3Aexport-xdpi%3D%22500%22%0A%20%20%20inkscape%3Aexport-ydpi%3D%22500%22%0A%20%20%20xmlns%3Ainkscape%3D%22http%3A//www.inkscape.org/namespaces/inkscape%22%0A%20%20%20xmlns%3Asodipodi%3D%22http%3A//sodipodi.sourceforge.net/DTD/sodipodi-0.dtd%22%0A%20%20%20xmlns%3D%22http%3A//www.w3.org/2000/svg%22%0A%20%20%20xmlns%3Asvg%3D%22http%3A//www.w3.org/2000/svg%22%0A%20%20%20xmlns%3Ardf%3D%22http%3A//www.w3.org/1999/02/22-rdf-syntax-ns%23%22%0A%20%20%20xmlns%3Acc%3D%22http%3A//creativecommons.org/ns%23%22%0A%20%20%20xmlns%3Adc%3D%22http%3A//purl.org/dc/elements/1.1/%22%3E%0A%20%20%3Cmetadata%0A%20%20%20%20%20id%3D%22metadata845%22%3E%0A%20%20%20%20%3Crdf%3ARDF%3E%0A%20%20%20%20%20%20%3Ccc%3AWork%0A%20%20%20%20%20%20%20%20%20rdf%3Aabout%3D%22%22%3E%0A%20%20%20%20%20%20%20%20%3Cdc%3Aformat%3Eimage/svg%2Bxml%3C/dc%3Aformat%3E%0A%20%20%20%20%20%20%20%20%3Cdc%3Atype%0A%20%20%20%20%20%20%20%20%20%20%20rdf%3Aresource%3D%22http%3A//purl.org/dc/dcmitype/StillImage%22%20/%3E%0A%20%20%20%20%20%20%3C/cc%3AWork%3E%0A%20%20%20%20%3C/rdf%3ARDF%3E%0A%20%20%3C/metadata%3E%0A%20%20%3Csodipodi%3Anamedview%0A%20%20%20%20%20id%3D%22namedview2865%22%0A%20%20%20%20%20pagecolor%3D%22%23ffffff%22%0A%20%20%20%20%20bordercolor%3D%22%23000000%22%0A%20%20%20%20%20borderopacity%3D%220.25%22%0A%20%20%20%20%20inkscape%3Ashowpageshadow%3D%222%22%0A%20%20%20%20%20inkscape%3Apageopacity%3D%220.0%22%0A%20%20%20%20%20inkscape%3Apagecheckerboard%3D%220%22%0A%20%20%20%20%20inkscape%3Adeskcolor%3D%22%23d1d1d1%22%0A%20%20%20%20%20inkscape%3Adocument-units%3D%22mm%22%0A%20%20%20%20%20showgrid%3D%22false%22%0A%20%20%20%20%20inkscape%3Azoom%3D%222.4056945%22%0A%20%20%20%20%20inkscape%3Acx%3D%2212.886092%22%0A%20%20%20%20%20inkscape%3Acy%3D%2265.053979%22%0A%20%20%20%20%20inkscape%3Awindow-width%3D%221280%22%0A%20%20%20%20%20inkscape%3Awindow-height%3D%22747%22%0A%20%20%20%20%20inkscape%3Awindow-x%3D%220%22%0A%20%20%20%20%20inkscape%3Awindow-y%3D%2225%22%0A%20%20%20%20%20inkscape%3Awindow-maximized%3D%220%22%0A%20%20%20%20%20inkscape%3Acurrent-layer%3D%22layer1%22%0A%20%20%20%20%20inkscape%3Adocument-rotation%3D%220%22%20/%3E%0A%20%20%3Cdefs%0A%20%20%20%20%20id%3D%22defs2860%22%3E%0A%20%20%20%20%3Cfilter%0A%20%20%20%20%20%20%20style%3D%22color-interpolation-filters%3AsRGB%22%0A%20%20%20%20%20%20%20inkscape%3Alabel%3D%22Invert%22%0A%20%20%20%20%20%20%20id%3D%22filter933%22%0A%20%20%20%20%20%20%20x%3D%22-0.043156687%22%0A%20%20%20%20%20%20%20y%3D%22-0.038086591%22%0A%20%20%20%20%20%20%20width%3D%221.0863134%22%0A%20%20%20%20%20%20%20height%3D%221.0761732%22%3E%0A%20%20%20%20%20%20%3CfeColorMatrix%0A%20%20%20%20%20%20%20%20%20values%3D%22-1%200%200%200%201%200%20-1%200%200%201%200%200%20-1%200%201%20-0.21%20-0.72%20-0.07%202%200%20%22%0A%20%20%20%20%20%20%20%20%20result%3D%22fbSourceGraphic%22%0A%20%20%20%20%20%20%20%20%20id%3D%22feColorMatrix931%22%20/%3E%0A%20%20%20%20%20%20%3CfeColorMatrix%0A%20%20%20%20%20%20%20%20%20result%3D%22fbSourceGraphicAlpha%22%0A%20%20%20%20%20%20%20%20%20in%3D%22fbSourceGraphic%22%0A%20%20%20%20%20%20%20%20%20values%3D%220%200%200%20-1%200%200%200%200%20-1%200%200%200%200%20-1%200%200%200%200%201%200%22%0A%20%20%20%20%20%20%20%20%20id%3D%22feColorMatrix202%22%20/%3E%0A%20%20%20%20%20%20%3CfeColorMatrix%0A%20%20%20%20%20%20%20%20%20id%3D%22feColorMatrix204%22%0A%20%20%20%20%20%20%20%20%20values%3D%22-1%200%200%200%201%200%20-1%200%200%201%200%200%20-1%200%201%20-0.21%20-0.72%20-0.07%202%200%20%22%0A%20%20%20%20%20%20%20%20%20result%3D%22color2%22%0A%20%20%20%20%20%20%20%20%20in%3D%22fbSourceGraphic%22%20/%3E%0A%20%20%20%20%3C/filter%3E%0A%20%20%20%20%3Cfilter%0A%20%20%20%20%20%20%20style%3D%22color-interpolation-filters%3AsRGB%22%0A%20%20%20%20%20%20%20inkscape%3Alabel%3D%22Invert%22%0A%20%20%20%20%20%20%20id%3D%22filter937%22%0A%20%20%20%20%20%20%20x%3D%22-0.12376668%22%0A%20%20%20%20%20%20%20y%3D%22-0.12376668%22%0A%20%20%20%20%20%20%20width%3D%221.2475334%22%0A%20%20%20%20%20%20%20height%3D%221.2475334%22%3E%0A%20%20%20%20%20%20%3CfeColorMatrix%0A%20%20%20%20%20%20%20%20%20values%3D%22-1%200%200%200%201%200%20-1%200%200%201%200%200%20-1%200%201%20-0.21%20-0.72%20-0.07%202%200%20%22%0A%20%20%20%20%20%20%20%20%20result%3D%22fbSourceGraphic%22%0A%20%20%20%20%20%20%20%20%20id%3D%22feColorMatrix935%22%20/%3E%0A%20%20%20%20%20%20%3CfeColorMatrix%0A%20%20%20%20%20%20%20%20%20result%3D%22fbSourceGraphicAlpha%22%0A%20%20%20%20%20%20%20%20%20in%3D%22fbSourceGraphic%22%0A%20%20%20%20%20%20%20%20%20values%3D%220%200%200%20-1%200%200%200%200%20-1%200%200%200%200%20-1%200%200%200%200%201%200%22%0A%20%20%20%20%20%20%20%20%20id%3D%22feColorMatrix198%22%20/%3E%0A%20%20%20%20%20%20%3CfeColorMatrix%0A%20%20%20%20%20%20%20%20%20id%3D%22feColorMatrix200%22%0A%20%20%20%20%20%20%20%20%20values%3D%22-1%200%200%200%201%200%20-1%200%200%201%200%200%20-1%200%201%20-0.21%20-0.72%20-0.07%202%200%20%22%0A%20%20%20%20%20%20%20%20%20result%3D%22color2%22%0A%20%20%20%20%20%20%20%20%20in%3D%22fbSourceGraphic%22%20/%3E%0A%20%20%20%20%3C/filter%3E%0A%20%20%20%20%3Cfilter%0A%20%20%20%20%20%20%20style%3D%22color-interpolation-filters%3AsRGB%22%0A%20%20%20%20%20%20%20inkscape%3Alabel%3D%22Invert%22%0A%20%20%20%20%20%20%20id%3D%22filter941%22%0A%20%20%20%20%20%20%20x%3D%22-0.014279557%22%0A%20%20%20%20%20%20%20y%3D%22-0.017320292%22%0A%20%20%20%20%20%20%20width%3D%221.0285589%22%0A%20%20%20%20%20%20%20height%3D%221.0346396%22%3E%0A%20%20%20%20%20%20%3CfeColorMatrix%0A%20%20%20%20%20%20%20%20%20values%3D%22-1%200%200%200%201%200%20-1%200%200%201%200%200%20-1%200%201%20-0.21%20-0.72%20-0.07%202%200%20%22%0A%20%20%20%20%20%20%20%20%20result%3D%22fbSourceGraphic%22%0A%20%20%20%20%20%20%20%20%20id%3D%22feColorMatrix939%22%20/%3E%0A%20%20%20%20%20%20%3CfeColorMatrix%0A%20%20%20%20%20%20%20%20%20result%3D%22fbSourceGraphicAlpha%22%0A%20%20%20%20%20%20%20%20%20in%3D%22fbSourceGraphic%22%0A%20%20%20%20%20%20%20%20%20values%3D%220%200%200%20-1%200%200%200%200%20-1%200%200%200%200%20-1%200%200%200%200%201%200%22%0A%20%20%20%20%20%20%20%20%20id%3D%22feColorMatrix194%22%20/%3E%0A%20%20%20%20%20%20%3CfeColorMatrix%0A%20%20%20%20%20%20%20%20%20id%3D%22feColorMatrix196%22%0A%20%20%20%20%20%20%20%20%20values%3D%22-1%200%200%200%201%200%20-1%200%200%201%200%200%20-1%200%201%20-0.21%20-0.72%20-0.07%202%200%20%22%0A%20%20%20%20%20%20%20%20%20result%3D%22color2%22%0A%20%20%20%20%20%20%20%20%20in%3D%22fbSourceGraphic%22%20/%3E%0A%20%20%20%20%3C/filter%3E%0A%20%20%3C/defs%3E%0A%20%20%3Cg%0A%20%20%20%20%20inkscape%3Alabel%3D%22Ebene%201%22%0A%20%20%20%20%20inkscape%3Agroupmode%3D%22layer%22%0A%20%20%20%20%20id%3D%22layer1%22%0A%20%20%20%20%20transform%3D%22translate%28-48.794556%2C-43.121355%29%22%3E%0A%20%20%20%20%3Cpath%0A%20%20%20%20%20%20%20style%3D%22fill%3Anone%3Bfill-opacity%3A1%3Bstroke%3A%23000000%3Bstroke-width%3A1.35%3Bstroke-linecap%3Around%3Bstroke-linejoin%3Around%3Bstroke-miterlimit%3A4%3Bstroke-dasharray%3Anone%3Bstroke-opacity%3A1%3Bpaint-order%3Astroke%20markers%20fill%3Bfilter%3Aurl%28%23filter933%29%22%0A%20%20%20%20%20%20%20d%3D%22m%2065.886941%2C60.569394%2011.58569%2C6.51888%20-11.58196%2C6.6091%22%0A%20%20%20%20%20%20%20id%3D%22path2495-4%22%0A%20%20%20%20%20%20%20sodipodi%3Anodetypes%3D%22ccc%22%20/%3E%0A%20%20%20%20%3Cpath%0A%20%20%20%20%20%20%20style%3D%22fill%3Anone%3Bfill-opacity%3A1%3Bstroke%3A%23000000%3Bstroke-width%3A1.35%3Bstroke-linecap%3Around%3Bstroke-linejoin%3Around%3Bstroke-miterlimit%3A4%3Bstroke-dasharray%3Anone%3Bstroke-opacity%3A1%3Bpaint-order%3Astroke%20markers%20fill%3Bfilter%3Aurl%28%23filter933%29%22%0A%20%20%20%20%20%20%20d%3D%22m%2070.832097%2C54.65205%20-11.58569%2C6.51888%2011.58196%2C6.6091%22%0A%20%20%20%20%20%20%20id%3D%22path2495-3-5%22%0A%20%20%20%20%20%20%20sodipodi%3Anodetypes%3D%22ccc%22%20/%3E%0A%20%20%20%20%3Ccircle%0A%20%20%20%20%20%20%20style%3D%22fill%3Anone%3Bfill-opacity%3A1%3Bstroke%3A%23000000%3Bstroke-width%3A1.55%3Bstroke-linejoin%3Around%3Bstroke-miterlimit%3A4%3Bstroke-dasharray%3Anone%3Bstroke-opacity%3A1%3Bpaint-order%3Amarkers%20fill%20stroke%3Bfilter%3Aurl%28%23filter937%29%22%0A%20%20%20%20%20%20%20id%3D%22path8251-3-7-6-4%22%0A%20%20%20%20%20%20%20cx%3D%2298.409592%22%0A%20%20%20%20%20%20%20cy%3D%2224.861135%22%0A%20%20%20%20%20%20%20r%3D%222.3036535%22%0A%20%20%20%20%20%20%20transform%3D%22matrix%280%2C0.87683752%2C-0.87683752%2C0%2C82.920084%2C-38.028367%29%22%20/%3E%0A%20%20%20%20%3Ccircle%0A%20%20%20%20%20%20%20style%3D%22fill%3Anone%3Bfill-opacity%3A1%3Bstroke%3A%23000000%3Bstroke-width%3A1.55%3Bstroke-linejoin%3Around%3Bstroke-miterlimit%3A4%3Bstroke-dasharray%3Anone%3Bstroke-opacity%3A1%3Bpaint-order%3Amarkers%20fill%20stroke%3Bfilter%3Aurl%28%23filter937%29%22%0A%20%20%20%20%20%20%20id%3D%22path8251-5-5-9-2-8%22%0A%20%20%20%20%20%20%20cx%3D%2296.595795%22%0A%20%20%20%20%20%20%20cy%3D%2216.605768%22%0A%20%20%20%20%20%20%20r%3D%222.3036535%22%0A%20%20%20%20%20%20%20transform%3D%22matrix%280%2C0.87683752%2C-0.87683752%2C0%2C82.920084%2C-38.028367%29%22%20/%3E%0A%20%20%20%20%3Ccircle%0A%20%20%20%20%20%20%20style%3D%22fill%3Anone%3Bfill-opacity%3A1%3Bstroke%3A%23000000%3Bstroke-width%3A1.55%3Bstroke-linejoin%3Around%3Bstroke-miterlimit%3A4%3Bstroke-dasharray%3Anone%3Bstroke-opacity%3A1%3Bpaint-order%3Amarkers%20fill%20stroke%3Bfilter%3Aurl%28%23filter937%29%22%0A%20%20%20%20%20%20%20id%3D%22path8251-58-4-0-7-5%22%0A%20%20%20%20%20%20%20cx%3D%2298.576675%22%0A%20%20%20%20%20%20%20cy%3D%228.350399%22%0A%20%20%20%20%20%20%20r%3D%222.3036535%22%0A%20%20%20%20%20%20%20transform%3D%22matrix%280%2C0.87683752%2C-0.87683752%2C0%2C82.920084%2C-38.028367%29%22%20/%3E%0A%20%20%20%20%3Cpath%0A%20%20%20%20%20%20%20id%3D%22path9235-9-0-5%22%0A%20%20%20%20%20%20%20style%3D%22fill%3Anone%3Bstroke%3A%23000000%3Bstroke-width%3A1.35%3Bstroke-linecap%3Around%3Bstroke-linejoin%3Around%3Bstroke-miterlimit%3A4%3Bstroke-dasharray%3Anone%3Bpaint-order%3Amarkers%20fill%20stroke%3Bfilter%3Aurl%28%23filter941%29%3Bstroke-opacity%3A1%22%0A%20%20%20%20%20%20%20d%3D%22m%2080.800874%2C51.972783%20c%203.33744%2C3.23235%205.30028%2C7.75854%205.04277%2C12.68188%20-0.48633%2C9.29851%20-8.70847%2C16.49248%20-18.36469%2C16.0682%20-9.65622%2C-0.42429%20-17.08986%2C-8.3062%20-16.60355%2C-17.60471%200.23128%2C-4.42211%202.21216%2C-8.36823%205.26481%2C-11.24532%22%0A%20%20%20%20%20%20%20sodipodi%3Anodetypes%3D%22csssc%22%20/%3E%0A%20%20%3C/g%3E%0A%3C/svg%3E%0A" x="107" y="107" width="18" height="18" preserveAspectRatio="xMidYMid meet"/></svg>
